HIERARCHY
ROOT Hips
{
	OFFSET 0.00000 0.00000 0.00000
	CHANNELS 6 Xposition Yposition Zposition Zrotation Yrotation Xrotation 
	JOINT LHipJoint
	{
		OFFSET 0 0 0
		CHANNELS 3 Zrotation Yrotation Xrotation
		JOINT LeftHip
		{
			OFFSET 1.62329 -1.80800 0.67318
			CHANNELS 3 Zrotation Yrotation Xrotation
			JOINT LeftKnee
			{
				OFFSET 2.57139 -7.06484 0.00000
				CHANNELS 3 Zrotation Yrotation Xrotation
				JOINT LeftAnkle
				{
					OFFSET 2.52017 -6.92413 0.00000
					CHANNELS 3 Zrotation Yrotation Xrotation
					JOINT LeftToe
					{
						OFFSET 0.23295 -0.64001 2.10214
						CHANNELS 3 Zrotation Yrotation Xrotation
						End Site
						{
							OFFSET 0.00000 -0.00000 1.10139
						}
					}
				}
			}
		}
	}
	JOINT RHipJoint
	{
		OFFSET 0 0 0
		CHANNELS 3 Zrotation Yrotation Xrotation
		JOINT RightHip
		{
			OFFSET -1.48061 -1.80800 0.67318
			CHANNELS 3 Zrotation Yrotation Xrotation
			JOINT RightKnee
			{
				OFFSET -2.63258 -7.23296 0.00000
				CHANNELS 3 Zrotation Yrotation Xrotation
				JOINT RightAnkle
				{
					OFFSET -2.54779 -7.00000 0.00000
					CHANNELS 3 Zrotation Yrotation Xrotation
					JOINT RightToe
					{
						OFFSET -0.23067 -0.63376 2.12161
						CHANNELS 3 Zrotation Yrotation Xrotation
						End Site
						{
							OFFSET -0.00000 -0.00000 1.11000
						}
					}
				}
			}
		}
	}
	JOINT lowerback
	{
		OFFSET 0 0 0
		CHANNELS 3 Zrotation Yrotation Xrotation
		JOINT Chest
		{
			OFFSET -0.02108 2.07573 -0.16981
			CHANNELS 3 Zrotation Yrotation Xrotation
			JOINT Chest2
			{
				OFFSET 0.05070 2.08439 -0.03141
				CHANNELS 3 Zrotation Yrotation Xrotation
				JOINT lowerneck
				{
					OFFSET 0 0 0
					CHANNELS 3 Zrotation Yrotation Xrotation
					JOINT Neck
					{
						OFFSET -0.10731 1.60408 0.31370
						CHANNELS 3 Zrotation Yrotation Xrotation
						JOINT Head
						{
							OFFSET 0.08411 1.65679 -0.30822
							CHANNELS 3 Zrotation Yrotation Xrotation
							End Site
							{
								OFFSET 0.03911 1.69149 -0.14146
							}
						}
					}
				}
				JOINT LeftCollar
				{
					OFFSET 0 0 0
					CHANNELS 3 Zrotation Yrotation Xrotation
					JOINT LeftShoulder
					{
						OFFSET 3.52315 0.73219 -0.54694
CHANNELS 3 Zrotation Xrotation Yrotation
						JOINT LeftElbow
						{
OFFSET 0 -5.324620 -0.000000
CHANNELS 3 Zrotation Xrotation Yrotation
							JOINT LeftWrist
							{
OFFSET 0 -3.484020 -0.000000
CHANNELS 3 Zrotation Xrotation Yrotation
								JOINT lhand
								{
									OFFSET 0 0 0
CHANNELS 3 Zrotation Xrotation Yrotation
									JOINT LFingers
									{
OFFSET 0 -0.572480 -0.000000
CHANNELS 3 Zrotation Xrotation Yrotation
										End Site
										{
OFFSET 0 -0.461540 -0.000000
										}
									}
								}
								JOINT LThumb
								{
OFFSET 0 0.000000 0.000000
CHANNELS 3 Zrotation Xrotation Yrotation
									End Site
									{
OFFSET 0 -0.468590 0.468590
									}
								}
							}
						}
					}
				}
				JOINT RightCollar
				{
					OFFSET 0 0 0
					CHANNELS 3 Zrotation Yrotation Xrotation
					JOINT RightShoulder
					{
						OFFSET -3.41766 0.93592 -0.10019
CHANNELS 3 Zrotation Xrotation Yrotation
						JOINT RightElbow
						{
OFFSET 0 -5.335890 -0.000000
CHANNELS 3 Zrotation Xrotation Yrotation
							JOINT RightWrist
							{
OFFSET 0 -3.641340 -0.000000
CHANNELS 3 Zrotation Xrotation Yrotation
								JOINT rhand
								{
									OFFSET 0 0 0
CHANNELS 3 Zrotation Xrotation Yrotation
									JOINT RFingers
									{
OFFSET 0 -0.734810 -0.000000
CHANNELS 3 Zrotation Xrotation Yrotation
										End Site
										{
OFFSET 0 -0.592420 -0.000000
										}
									}
								}
								JOINT RThumb
								{
OFFSET 0 0.000000 0.000000
CHANNELS 3 Zrotation Xrotation Yrotation
									End Site
									{
OFFSET 0 -0.601470 0.601470
									}
								}
							}
						}
					}
				}
			}
		}
	}
}
MOTION
Frames: 4
Frame Time: 0.008333333333333333
-3.800101 17.608921 1.256355 1.380316 7.947300 -0.358808 0.000000 0.000000 0.000000 -13.748898 -6.300872 -6.534452 2.011742 8.890571 25.453526 0.576126 -4.180939 -13.526704 1.495356 -7.724666 -21.880849 0.000000 0.000000 0.000000 14.761864 -1.010102 -10.903184 -3.440761 -11.376550 33.560597 -1.448662 3.437248 -21.894331 -0.185265 -2.771902 7.644341 -2.002018 -0.275500 5.881727 1.019949 -0.466146 0.753920 2.212239 -0.208871 -2.496264 -10.829516 -3.398150 -27.970914 6.080086 -1.946397 23.259151 3.775076 -1.002501 12.526306 0.000000 0.000000 0.000000 58.071485 13.115949 31.123616 19.085228 -29.524526 5.072779 21.587585 1.495728 -18.771563 0.000000 0.000000 0.000000 -7.125000 0.000000 0.000000 -6.558600 49.944425 0.802432 0.000000 0.000000 0.000000 -51.474696 17.791684 -40.425050 -20.932837 -31.749772 -6.014628 -32.786969 11.324572 2.285917 0.000000 0.000000 0.000000 7.125000 0.000000 0.000000 -5.020654 32.670314 -1.521196
-3.519570 17.614104 1.242271 1.694950 6.594010 -0.563377 0.000000 0.000000 0.000000 -15.150453 -5.256607 -6.245894 2.034590 8.937770 25.600909 0.633450 -3.710476 -14.232897 1.497673 -7.730385 -21.898055 0.000000 0.000000 0.000000 13.547787 0.365935 -10.185606 -3.373899 -11.277063 33.220121 -1.426974 2.792185 -21.846617 -0.179097 -2.724915 7.513810 -2.470325 -0.264520 5.002086 0.936865 -0.464093 0.725768 2.381728 -0.210562 -2.030203 -10.643171 -3.030121 -27.308091 6.328648 -1.676905 23.911271 3.908411 -0.853244 12.632539 0.000000 0.000000 0.000000 65.842119 8.578550 30.792545 19.745495 -30.334475 5.402257 21.930093 2.143337 -18.632800 0.000000 0.000000 0.000000 -7.125000 0.000000 0.000000 -6.186418 49.854086 0.742863 0.000000 0.000000 0.000000 -59.887514 12.225291 -38.102719 -22.165922 -33.164025 -6.676371 -31.570173 14.848083 2.159150 0.000000 0.000000 0.000000 7.125000 0.000000 0.000000 -4.030781 32.495937 -1.236633
-3.270845 17.622698 1.206173 1.561761 4.875354 -0.726024 0.000000 0.000000 0.000000 -15.922214 -4.468416 -6.247855 2.097963 9.067267 26.005917 0.684351 -3.041466 -14.890568 1.336437 -7.319783 -20.666400 0.000000 0.000000 0.000000 12.836694 1.523172 -9.787630 -3.248758 -11.087258 32.574684 -1.326316 2.435742 -21.109023 -0.142643 -2.433958 6.706481 -2.739194 -0.203991 3.930562 0.984669 -0.371693 0.426498 2.569546 -0.163565 -1.741596 -10.441506 -2.650327 -25.809910 6.770832 -1.535911 24.001201 4.065311 -0.729037 12.366053 0.000000 0.000000 0.000000 70.298657 1.481098 28.913414 20.277535 -30.975252 5.673467 22.111843 3.956288 -18.425446 0.000000 0.000000 0.000000 -7.125000 0.000000 0.000000 -5.953131 49.665997 0.684907 0.000000 0.000000 0.000000 -65.009851 3.345978 -35.299941 -21.736469 -32.677768 -6.443021 -29.990246 17.027483 2.415713 0.000000 0.000000 0.000000 7.125000 0.000000 0.000000 -2.757198 32.759733 -0.827649
-3.062560 17.626873 1.166981 1.592940 3.372106 -0.655944 0.000000 0.000000 0.000000 -16.707860 -4.015855 -6.352490 2.106591 9.084682 26.060427 0.716446 -2.393381 -15.356129 1.245926 -7.077287 -19.944542 0.000000 0.000000 0.000000 11.960762 2.062821 -9.937986 -3.162698 -10.953906 32.124543 -1.205555 2.672665 -20.042131 -0.142444 -2.432137 6.701566 -3.228873 -0.157133 2.982746 1.052239 -0.301577 0.211795 2.906024 -0.127634 -1.432715 -10.267830 -2.387040 -25.689853 6.756937 -1.256067 24.500191 4.096596 -0.602642 12.508852 0.000000 0.000000 0.000000 69.381152 -5.519356 25.488844 20.134638 -30.804183 5.600137 20.598715 3.352638 -18.193353 0.000000 0.000000 0.000000 -7.125000 0.000000 0.000000 -7.356841 49.185158 0.762960 0.000000 0.000000 0.000000 -65.506258 -4.603676 -30.783121 -20.384479 -31.102730 -5.728608 -29.284936 18.067039 1.919621 0.000000 0.000000 0.000000 7.125000 0.000000 0.000000 -2.179788 32.175492 -0.684655
